<svg width="18" height="18" viewBox="0 0 18 18" fill="none" xmlns="http://www.w3.org/2000/svg">
<path fill-rule="evenodd" clip-rule="evenodd" d="M11.025 2.11012C10.3923 1.834 9.70372 1.6875 9.00004 1.6875C7.65738 1.6875 6.36972 2.22087 5.42032 3.17027C4.47091 4.11967 3.93754 5.40734 3.93754 6.75C3.93754 9.29212 3.39357 10.8851 2.88123 11.8244C2.62428 12.2955 2.37223 12.6078 2.19326 12.7967C2.10362 12.8914 2.03193 12.9554 1.98662 12.9932C1.96395 13.0121 1.94787 13.0244 1.93942 13.0307L1.93294 13.0354C1.73027 13.1737 1.64044 13.4277 1.71168 13.663C1.78351 13.9002 2.00217 14.0625 2.25004 14.0625H6.23702C6.50269 15.5546 7.80657 16.6875 9.37504 16.6875C10.9435 16.6875 12.2474 15.5546 12.5131 14.0625H15.75C15.9979 14.0625 16.2166 13.9002 16.2884 13.663C16.3596 13.4277 16.2698 13.1737 16.0672 13.0354L16.0607 13.0307C16.0522 13.0244 16.0361 13.0121 16.0135 12.9932C15.9682 12.9554 15.8965 12.8914 15.8068 12.7967C15.6279 12.6078 15.3758 12.2955 15.1189 11.8244C14.7207 11.0944 14.3034 9.96953 14.1372 8.31113C13.7883 8.43092 13.4145 8.49712 13.0257 8.49991C13.2108 10.2547 13.6617 11.5023 14.1312 12.3631C14.249 12.5791 14.3676 12.7699 14.4827 12.9375H3.51741C3.63252 12.7699 3.75105 12.5791 3.86886 12.3631C4.48152 11.2399 5.06254 9.45788 5.06254 6.75C5.06254 5.70571 5.47739 4.70419 6.21581 3.96577C6.95423 3.22734 7.95575 2.8125 9.00004 2.8125C9.39 2.8125 9.77399 2.87035 10.1405 2.98129C10.3812 2.64107 10.681 2.34568 11.025 2.11012ZM12.5231 3.11448C12.1298 3.21367 11.7841 3.43271 11.5272 3.73048C11.616 3.80479 11.7018 3.88326 11.7843 3.96577C12.5227 4.70419 12.9375 5.70571 12.9375 6.75C12.9375 6.81503 12.9379 6.87953 12.9385 6.94349C12.959 6.94413 12.9795 6.94444 13.0001 6.94444C13.3915 6.94444 13.756 6.82875 14.0611 6.6297C14.0303 5.33063 13.5008 4.09128 12.5798 3.17027C12.561 3.15151 12.5421 3.13292 12.5231 3.11448ZM11.3599 14.0625H7.39018C7.63503 14.9282 8.43096 15.5625 9.37504 15.5625C10.3191 15.5625 11.1151 14.9282 11.3599 14.0625Z" fill="#D81800"/>
<path d="M15 5C15 6.10457 14.1046 7 13 7C11.8954 7 11 6.10457 11 5C11 3.89543 11.8954 3 13 3C14.1046 3 15 3.89543 15 5Z" fill="#E72211"/>
</svg>