<svg width="82" height="37" viewBox="0 0 82 37" fill="none" xmlns="http://www.w3.org/2000/svg">
<path d="M8.986 33.4921H15.86C15.86 33.4921 15.86 28.7821 15.86 26.9281C15.86 25.0741 13.817 25.0551 13.817 25.0551H8.986V23.0781H6.964V25.0551L0.0889988 25.0611L0.0859985 33.4931H6.964V36.7981H8.986V33.4921ZM6.964 26.6621V31.8851H1.986L1.983 26.6621H6.964ZM13.99 27.9161C13.99 29.2031 13.99 31.8851 13.99 31.8851H8.987V26.6621C10.01 26.6621 12.619 26.6621 12.619 26.6621C12.619 26.6621 13.99 26.6151 13.99 27.9161Z" fill="#E62411"/>
<path d="M50.505 23.1934C50.505 23.3234 50.505 25.1104 50.505 25.1104C50.505 25.7564 50.374 26.5084 50.112 27.3424C49.86 28.1534 49.432 29.0124 48.842 29.8944C48.273 30.7334 47.407 31.6594 46.194 32.7214C45.5 33.3524 44.439 34.0884 42.861 35.0414V35.0434C42.954 35.1544 43.98 36.3914 44.05 36.4764C44.132 36.4264 44.48 36.2174 44.48 36.2174C45.825 35.3574 46.992 34.4444 47.947 33.5024C48.856 32.6414 49.596 31.8004 50.143 31.0034C50.684 30.2674 51.131 29.4774 51.473 28.6484L51.539 28.4914L51.603 28.6484C51.974 29.5464 52.707 30.6294 53.041 31.0784C53.584 31.8044 53.883 32.1814 55.252 33.5524C55.982 34.2824 57.873 35.7484 59.221 36.5424C59.291 36.4524 60.342 35.0644 60.426 34.9544C59.258 34.2244 58.291 33.5624 57.188 32.7394C56.073 31.8114 55.409 31.2144 54.647 30.3254C53.858 29.4054 53.26 28.3894 52.961 27.4674C52.662 26.5364 52.508 25.9254 52.463 24.9784C52.463 24.9784 52.463 23.3244 52.463 23.1944C52.335 23.1934 50.632 23.1934 50.505 23.1934Z" fill="#E62411"/>
<path d="M22.27 36.514C22.409 36.514 37.211 36.514 37.35 36.514C37.35 36.375 37.338 24.734 37.338 24.734C37.338 24.199 36.874 23.252 35.635 23.252C35.635 23.252 22.407 23.25 22.267 23.25C22.267 23.386 22.27 36.376 22.27 36.514ZM34.078 24.788L33.974 24.593L34.154 24.591C35.707 24.591 35.677 25.521 35.677 25.628L35.682 35.168H23.932V24.597H30.151L30.171 25.48L30.1 25.483C30.1 25.483 24.725 25.483 24.602 25.483C24.602 25.603 24.602 26.644 24.602 26.765C24.74 26.765 30.27 26.765 30.27 26.765L30.274 26.829C30.447 28.886 30.875 30.591 31.544 31.891L31.565 31.93L31.539 31.965C31.255 32.361 30.978 32.688 30.69 32.961C30.687 32.963 30.198 33.416 30.198 33.416L30.167 33.301C30.167 33.301 29.915 32.199 29.887 32.081C28.741 32.308 27.001 32.494 24.569 32.647C24.596 32.783 24.813 33.871 24.835 33.977C26.555 33.915 28.28 33.743 29.962 33.459L30.212 33.416C30.212 33.416 29.249 34.24 29.129 34.344C29.261 34.431 30.104 34.99 30.136 35.01C30.136 35.01 30.26 35.094 30.359 35.094C30.486 35.094 30.567 35.01 30.567 35.01C31.14 34.482 31.706 33.892 32.249 33.255L32.307 33.189L32.599 33.577C33.141 34.298 33.412 34.661 33.992 34.707C34.543 34.756 35.099 34.35 35.281 34.205C35.011 33.991 34.042 33.21 33.573 32.593L33.324 32.294L33.147 32.075L33.189 32.044C33.946 31.062 34.61 29.646 35.166 27.84C35.032 27.812 33.8 27.543 33.691 27.519C33.434 28.421 33.052 29.408 32.552 30.457L32.48 30.608L32.423 30.45C32.059 29.423 31.797 28.21 31.642 26.843L31.633 26.765H34.247C34.247 26.765 34.553 26.765 35.191 26.765C35.185 26.536 35.12 25.728 34.434 25.53L34.402 25.52L34.109 24.843C34.111 24.848 34.078 24.788 34.078 24.788ZM31.563 24.898L31.572 24.597H32.546L32.826 25.154C32.827 25.16 32.946 25.486 32.946 25.486L32.845 25.483H31.549L31.563 24.898ZM24.583 27.473C24.583 27.609 24.582 31.552 24.582 31.686C24.717 31.686 29.903 31.686 30.04 31.686C30.04 31.552 30.04 28.695 30.04 28.693C30.04 28.645 30.03 28.228 29.711 27.9C29.437 27.617 29.011 27.473 28.45 27.473C28.45 27.473 24.719 27.473 24.583 27.473ZM26.113 28.632H28.354C28.502 28.663 28.512 28.751 28.512 28.778L28.506 30.525H26.102L26.113 28.632Z" fill="#E62411"/>
<path d="M72.368 23.1914C72.368 23.1914 72.368 23.7344 72.368 23.8474C72.231 23.8474 65.968 23.8474 65.968 23.8474V24.8554C65.968 24.8554 72.232 24.8594 72.368 24.8594C72.368 24.9634 72.368 25.2544 72.368 25.3574C72.231 25.3574 67.229 25.3574 67.229 25.3574V26.2144L79.766 26.2264L79.77 26.1444C79.77 25.4164 78.747 25.3574 78.594 25.3574C78.594 25.3574 74.496 25.3574 74.36 25.3574C74.36 25.2534 74.36 24.9644 74.36 24.8614C74.499 24.8614 80.899 24.8674 80.899 24.8674L80.903 24.7854C80.903 24.5494 80.825 24.3514 80.667 24.1994C80.284 23.8284 79.579 23.8474 79.55 23.8474C79.55 23.8474 74.499 23.8474 74.361 23.8474C74.361 23.7344 74.361 23.1914 74.361 23.1914H72.368ZM77.714 28.2044H77.716H66.659V29.1144C66.659 29.1144 72.231 29.1184 72.368 29.1184C72.368 29.2064 72.368 29.4824 72.368 29.5714C72.229 29.5714 65.434 29.5714 65.434 29.5714V30.4794L81.135 30.4884L81.141 30.4164C81.141 30.2024 81.061 30.0254 80.903 29.8884C80.52 29.5544 79.817 29.5704 79.786 29.5724C79.786 29.5724 74.499 29.5724 74.36 29.5724C74.36 29.4834 74.36 29.2094 74.36 29.1214C74.497 29.1214 79.063 29.1234 79.063 29.1234L79.069 29.0514C79.069 28.8394 78.989 28.6604 78.831 28.5234C78.449 28.1884 77.745 28.2044 77.714 28.2044ZM80.577 31.0464H65.033V32.0544C65.033 32.0544 77.275 32.0624 77.414 32.0624C77.414 32.1664 77.418 32.5944 77.418 32.7014C77.281 32.7014 73.248 32.7014 73.248 32.7014V33.7184C73.248 33.7184 77.289 33.7254 77.424 33.7254C77.424 33.8524 77.432 35.3204 77.432 35.3204C77.432 35.3234 77.436 35.3414 77.436 35.3644C77.436 35.4104 77.428 35.4764 77.385 35.5254C77.346 35.5714 77.281 35.5934 77.194 35.5934H75.708L75.706 35.6894C75.706 35.7724 75.724 35.9854 75.892 36.1824C76.099 36.4264 76.451 36.5514 76.941 36.5514H78.484C78.496 36.5514 79.326 36.5194 79.326 35.4274C79.326 35.4274 79.326 33.8584 79.326 33.7274C79.461 33.7274 81.637 33.7304 81.637 33.7304V33.6494C81.637 32.7314 80.477 32.7024 80.457 32.7024C80.332 32.7024 79.451 32.7024 79.326 32.7024C79.326 32.5974 79.326 32.1694 79.326 32.0644C79.461 32.0644 81.928 32.0654 81.928 32.0654L81.934 31.9844C81.934 31.7504 81.852 31.5514 81.694 31.3974C81.31 31.0274 80.605 31.0444 80.577 31.0464ZM74.654 33.8814H74.631L73.727 34.5734L75.383 35.6404L76.334 34.6824L76.254 34.6364C76.118 34.5594 74.919 33.8784 74.654 33.8814Z" fill="#E62411"/>
<path d="M72.534 33.0939C72.22 32.7619 71.712 32.5879 71.014 32.5879H66.498L66.494 36.1869H72.838V33.8809C72.841 33.8669 72.886 33.4649 72.534 33.0939ZM71.406 35.1989C71.273 35.1989 67.859 35.2079 67.859 35.2079L67.861 33.6279L70.789 33.6219C70.789 33.6239 71.412 33.6309 71.412 34.1769C71.409 34.1779 71.408 34.9649 71.406 35.1989Z" fill="#E62411"/>
<path d="M80.242 26.7091H80.244H65.515V27.7151C65.515 27.7151 80.072 27.7241 80.212 27.7241C80.204 27.9821 80.226 28.3591 79.583 28.5681L79.456 28.6071L80.468 29.3131C80.468 29.3131 81.595 29.1541 81.591 27.6481C81.591 27.6301 81.589 27.6171 81.589 27.6171C81.533 26.6811 80.255 26.7091 80.242 26.7091Z" fill="#E62411"/>
<path d="M49.451 7.006C49.476 7.099 49.521 7.398 49.521 7.398H47.686L47.67 7.315C47.074 4.107 44.275 1.777 41.012 1.777C37.749 1.777 34.949 4.107 34.355 7.315L34.339 7.398H31.054L31.038 7.315C30.443 4.107 27.642 1.777 24.379 1.777C21.117 1.777 18.317 4.107 17.721 7.315L17.707 7.398H15.913L15.932 7.282C16.554 3.13 20.185 0 24.379 0C28.377 0 31.8 2.758 32.696 6.614C33.591 2.758 37.013 0 41.01 0C44.991 0 48.415 2.735 49.325 6.584C49.327 6.584 49.419 6.9 49.451 7.006Z" fill="#E62411"/>
<path d="M66.07 7.28222C65.406 3.10622 61.857 0.0742188 57.632 0.0742188C53.54 0.0742188 50.017 2.98722 49.241 7.00422C49.237 7.00422 49.177 7.39822 49.177 7.39822H50.97L50.988 7.31722C51.609 4.15022 54.404 1.85222 57.633 1.85222C60.862 1.85222 63.654 4.15022 64.278 7.31722L64.294 7.39822H66.089L66.07 7.28222Z" fill="#BABBBC"/>
<path d="M7.383 10.668L6.475 14.134L6.442 14.265C6.289 14.879 6.142 15.466 6.021 16.036C5.916 15.431 5.767 14.78 5.619 14.155L4.783 10.668H3.734L2.817 14.133C2.643 14.791 2.464 15.467 2.342 16.067C2.227 15.488 2.079 14.811 1.92 14.146L1.105 10.668H0L1.755 17.584H2.802L3.78 14.011C3.965 13.366 4.101 12.82 4.215 12.261C4.308 12.822 4.434 13.378 4.588 14.008L5.454 17.585H6.501L8.461 10.669H7.383V10.668Z" fill="#231916"/>
<path d="M10.92 12.457C9.53101 12.457 8.56201 13.566 8.56201 15.155C8.56201 16.691 9.53101 17.683 11.031 17.683C11.828 17.683 12.366 17.516 12.677 17.375L12.744 17.345L12.553 16.541L12.456 16.583C12.159 16.709 11.795 16.826 11.151 16.826C10.214 16.826 9.63401 16.267 9.58401 15.325H12.97L12.984 15.203C12.995 15.111 13.01 14.984 13.01 14.826C13.009 13.733 12.462 12.457 10.92 12.457ZM10.85 13.265C11.173 13.265 11.434 13.364 11.625 13.558C11.918 13.856 11.972 14.298 11.979 14.516H9.60301C9.69101 14.01 10.033 13.265 10.85 13.265Z" fill="#231916"/>
<path d="M18.21 13.5936C17.239 13.2176 16.927 12.9216 16.927 12.3766C16.927 11.9186 17.292 11.4566 18.108 11.4566C18.662 11.4566 19.087 11.6246 19.345 11.7656L19.438 11.8166L19.735 10.9366L19.671 10.8996C19.446 10.7726 18.948 10.5586 18.138 10.5586C16.803 10.5586 15.869 11.3476 15.869 12.4766C15.869 13.3926 16.453 14.0256 17.706 14.4696C18.59 14.8096 18.918 15.1496 18.918 15.7256C18.918 16.3796 18.412 16.7856 17.598 16.7856C17.085 16.7856 16.519 16.6256 16.085 16.3596L15.986 16.2986L15.713 17.2026L15.768 17.2396C16.161 17.5016 16.888 17.6846 17.537 17.6846C19.344 17.6846 19.985 16.5916 19.985 15.6556C19.986 14.6906 19.455 14.0736 18.21 13.5936Z" fill="#231916"/>
<path d="M23.935 12.4576C23.614 12.4576 23.288 12.5476 22.992 12.7186C22.792 12.8296 22.615 12.9806 22.474 13.1556V10.3086H21.416V17.5846H22.474V14.5766C22.474 14.4166 22.483 14.2966 22.53 14.1846C22.666 13.7776 23.057 13.3666 23.625 13.3666C24.477 13.3666 24.655 14.1006 24.655 14.7166V17.5846H25.714V14.6166C25.714 13.0226 24.756 12.4576 23.935 12.4576Z" fill="#231916"/>
<path d="M31.092 16.336V14.527C31.092 13.583 30.758 12.459 29.164 12.459C28.558 12.459 27.96 12.621 27.526 12.903L27.467 12.941L27.727 13.694L27.823 13.632C28.157 13.415 28.611 13.286 29.034 13.286C29.705 13.286 30.045 13.633 30.045 14.316V14.327C28.918 14.334 28.072 14.586 27.596 15.059C27.291 15.363 27.136 15.752 27.136 16.215C27.136 16.95 27.675 17.694 28.705 17.694C29.275 17.694 29.801 17.466 30.146 17.076L30.204 17.584H31.19L31.171 17.479C31.117 17.189 31.092 16.815 31.092 16.336ZM28.933 16.866C28.575 16.866 28.192 16.669 28.192 16.116C28.192 15.874 28.268 15.681 28.425 15.528C28.706 15.253 29.238 15.114 30.009 15.114C30.027 15.114 30.045 15.114 30.063 15.114V15.865C30.063 15.94 30.046 16.029 30.018 16.116C29.9 16.463 29.545 16.866 28.933 16.866Z" fill="#231916"/>
<path d="M34.961 12.457C34.42 12.457 33.935 12.775 33.661 13.29L33.638 12.567H32.686L32.692 12.662C32.72 13.074 32.732 13.538 32.732 14.165V17.583H33.78V14.915C33.78 14.773 33.799 14.642 33.819 14.521C33.937 13.869 34.356 13.464 34.911 13.464C35.019 13.464 35.103 13.472 35.192 13.492L35.3 13.516V12.506L35.232 12.489C35.14 12.467 35.061 12.457 34.961 12.457Z" fill="#231916"/>
<path d="M38.56 12.457C37.171 12.457 36.202 13.566 36.202 15.155C36.202 16.691 37.171 17.683 38.67 17.683C39.468 17.683 40.006 17.516 40.316 17.375L40.383 17.345L40.191 16.541L40.094 16.583C39.797 16.709 39.433 16.826 38.789 16.826C37.852 16.826 37.272 16.267 37.222 15.325H40.609L40.623 15.203C40.634 15.111 40.648 14.984 40.648 14.826C40.648 13.733 40.101 12.457 38.56 12.457ZM38.49 13.265C38.813 13.265 39.074 13.364 39.264 13.558C39.557 13.856 39.612 14.298 39.619 14.516H37.242C37.33 14.01 37.672 13.265 38.49 13.265Z" fill="#231916"/>
<path d="M54.488 14.134L54.455 14.265C54.301 14.879 54.154 15.466 54.033 16.036C53.928 15.431 53.779 14.78 53.631 14.155L52.795 10.668H51.746L50.83 14.133C50.656 14.791 50.476 15.467 50.353 16.067C50.24 15.488 50.091 14.811 49.933 14.146L49.117 10.668H48.012L49.768 17.584H50.815L51.792 14.011C51.978 13.366 52.114 12.82 52.228 12.261C52.32 12.822 52.447 13.378 52.599 14.008L53.466 17.585H54.513L56.472 10.669H55.396L54.488 14.134Z" fill="#E50013"/>
<path d="M58.931 12.457C57.542 12.457 56.574 13.566 56.574 15.155C56.574 16.691 57.543 17.683 59.043 17.683C59.84 17.683 60.377 17.516 60.688 17.375L60.756 17.345L60.565 16.541L60.467 16.583C60.17 16.709 59.807 16.826 59.162 16.826C58.226 16.826 57.646 16.267 57.596 15.325H60.983L60.997 15.203C61.007 15.111 61.022 14.984 61.022 14.826C61.021 13.733 60.474 12.457 58.931 12.457ZM58.863 13.265C59.185 13.265 59.445 13.364 59.636 13.558C59.929 13.856 59.984 14.298 59.991 14.516H57.614C57.702 14.01 58.044 13.265 58.863 13.265Z" fill="#E50013"/>
<path d="M65.728 10.668H64.681V17.584H68.607V16.676H65.728V10.668Z" fill="#E50013"/>
<path d="M70.527 12.5684H69.468V17.5854H70.527V12.5684Z" fill="#E50013"/>
<path d="M69.997 10.6582C69.632 10.6582 69.358 10.9322 69.358 11.2972C69.358 11.6552 69.624 11.9252 69.977 11.9252C70.17 11.9252 70.342 11.8582 70.461 11.7352C70.572 11.6202 70.631 11.4642 70.625 11.2952C70.626 10.9262 70.361 10.6582 69.997 10.6582Z" fill="#E50013"/>
<path d="M74.454 12.457C73.718 12.457 73.198 12.812 72.909 13.203L72.87 12.567H71.909L71.917 12.663C71.944 13.034 71.956 13.423 71.956 13.965V17.583H73.015V14.585C73.015 14.439 73.035 14.301 73.072 14.201C73.199 13.784 73.588 13.365 74.166 13.365C75.018 13.365 75.197 14.094 75.197 14.705V17.583H76.254V14.605C76.253 12.561 74.755 12.457 74.454 12.457Z" fill="#E50013"/>
<path d="M79.74 14.6526L81.699 12.5676H80.392L78.945 14.2696C78.855 14.3786 78.75 14.5086 78.654 14.6336V10.3086H77.605V17.5846H78.654V15.7096L79.006 15.3176L80.639 17.5836H81.932L79.74 14.6526Z" fill="#E50013"/>
</svg>
