<svg width="90" height="90" viewBox="0 0 90 90" fill="none" xmlns="http://www.w3.org/2000/svg">
<g clip-path="url(#clip0_206_12843)">
<path d="M72.5625 37.65C71.3029 31.2664 67.866 25.5182 62.839 21.3872C57.812 17.2561 51.5066 14.9985 45 15C34.1625 15 24.75 21.15 20.0625 30.15C14.5509 30.7456 9.45377 33.357 5.75058 37.4825C2.04739 41.6079 -0.000643882 46.9563 1.51848e-07 52.5C1.51848e-07 64.9125 10.0875 75 22.5 75H71.25C81.6 75 90 66.6 90 56.25C90 46.35 82.3125 38.325 72.5625 37.65ZM37.5 63.75L24.375 50.625L29.6625 45.3375L37.5 53.175L56.925 33.75L62.2125 39.0375L37.5 63.75Z" fill="#FF7362"/>
<rect x="76" y="30.5352" width="5" height="5" transform="rotate(-45 76 30.5352)" fill="#EE3423"/>
<rect x="11" y="22.1211" width="3" height="3" transform="rotate(-45 11 22.1211)" fill="#FF7362"/>
</g>
<defs>
<clipPath id="clip0_206_12843">
<rect width="90" height="90" fill="white"/>
</clipPath>
</defs>
</svg>
